P2
90 90
255
99 94 92 91 94 95 96 92 90 87 83 77 73 69 67 68 72 73 75 79 80 81 84
84 87 88 82 75 75 75 73 70 70 67 66 63 59 58 58 57 59 62 64 68 69 70
72 74 74 72 71 70 68 66 63 63 62 62 65 65 68 71 71 71 71 69 69 68 67
67 66 64 63 63 67 72 72 68 64 59 55 52 49 48 46 43 42 42 42 47 97 104
104 99 97 94 93 90 89 93 87 83 75 72 72 74 75 81 85 86 82 83 83 84 87
86 80 75 73 73 75 72 71 67 66 66 61 58 57 57 59 63 65 67 70 71 73 75
75 73 73 70 67 66 64 63 63 65 66 69 73 74 72 74 74 73 72 68 69 67 68
67 70 78 90 90 82 75 70 64 58 54 53 51 49 47 45 43 45 50 102 107 108
106 102 93 92 91 90 93 102 99 93 81 80 79 88 97 96 95 89 86 85 85 86
84 80 77 75 75 75 74 72 69 68 67 60 59 56 56 59 62 65 69 71 73 76 77
76 75 72 71 69 66 64 64 63 64 66 68 73 75 75 76 74 74 73 71 70 71 73
77 88 96 99 100 101 87 77 70 64 60 55 52 50 49 47 47 48 52 108 113
110 108 105 97 92 91 91 94 100 102 109 105 102 102 106 101 97 90 87
86 85 85 85 82 81 79 78 76 75 75 72 68 67 65 61 57 57 58 58 63 67 70
71 74 75 77 77 76 73 71 69 66 64 63 62 65 66 68 72 74 75 76 77 77 76
76 77 78 89 111 116 101 99 101 95 92 78 70 65 62 59 55 51 50 49 50 53
54 111 117 112 110 108 99 92 92 91 95 104 111 108 95 103 107 108 100
94 88 86 85 83 85 88 86 83 83 81 79 77 74 72 68 66 65 61 58 56 58 60
62 65 70 74 74 76 78 78 77 74 72 70 67 64 62 61 64 66 68 71 74 76 77
78 76 80 82 85 110 120 99 84 77 67 75 96 92 77 73 67 62 59 56 53 50
49 52 54 55 111 117 113 110 108 100 93 93 92 94 108 100 70 68 72 71
80 104 108 92 86 85 85 86 89 90 88 88 84 84 79 75 71 69 65 65 62 58
55 57 58 62 66 69 73 73 77 78 78 77 75 73 72 68 64 62 62 64 65 67 70
73 75 77 76 77 79 89 121 117 93 84 83 82 73 62 72 89 79 72 67 61 56
55 54 50 49 52 55 56 112 116 114 110 106 99 92 91 92 98 110 72 70 82
86 80 77 80 104 114 96 85 87 89 91 92 94 94 91 87 84 80 75 68 64 64
62 57 57 56 57 60 65 68 71 74 77 78 77 75 75 73 73 68 66 65 63 64 65
67 69 72 73 74 77 79 92 134 121 100 97 94 94 87 80 67 57 88 82 73 66
59 56 54 54 51 49 53 56 57 112 113 112 110 105 97 91 89 89 100 110 74
80 96 99 96 95 88 81 94 111 98 87 89 91 94 95 95 93 89 87 83 77 71 65
64 61 57 58 56 56 58 61 66 70 73 76 76 78 76 75 75 73 71 68 66 65 65
65 66 68 71 73 74 78 92 138 122 117 115 113 95 98 89 82 70 55 86 87
76 66 60 55 55 55 52 49 53 55 58 110 111 108 106 102 94 86 85 87 101
109 79 90 102 108 107 104 97 95 95 100 119 106 93 93 94 96 93 94 90
90 86 81 74 67 65 60 56 55 56 57 57 59 65 69 73 75 77 77 76 76 74 72
71 70 67 65 63 63 65 69 70 74 76 92 139 125 123 118 114 108 101 94 89
82 72 59 85 88 75 66 61 58 55 54 53 50 51 54 56 106 109 106 103 99 93
84 85 86 98 105 86 97 106 110 112 104 100 112 105 92 97 119 113 97 96
95 94 94 92 90 89 84 77 70 65 62 57 55 57 58 59 61 66 68 69 73 74 74
74 74 73 71 70 69 69 66 63 61 62 67 70 72 87 140 126 112 113 118 112
100 100 90 87 83 80 64 84 87 75 68 63 60 58 55 52 51 50 51 54 105 103
102 100 97 89 82 84 88 97 117 97 111 116 110 107 110 114 117 112 106
99 102 126 119 99 96 96 95 95 94 92 85 77 71 67 60 58 56 57 56 57 61
64 65 67 68 71 71 70 71 71 70 68 69 66 63 63 61 62 67 71 88 135 130
117 119 117 115 115 101 89 85 82 82 82 69 83 86 76 71 66 60 57 55 52
51 50 51 52 106 104 103 102 96 90 83 84 85 93 116 104 117 120 112 111
109 111 122 131 113 104 93 105 126 119 101 98 100 98 95 94 87 79 71
66 61 58 58 58 56 58 60 63 62 66 67 68 68 69 70 71 69 67 65 65 63 62
61 64 73 85 134 135 121 117 116 118 108 112 114 91 83 82 85 87 71 88
87 78 73 69 63 60 57 55 52 52 52 52 109 108 107 103 98 91 85 86 86 93
119 108 121 126 117 114 112 120 136 132 124 98 93 98 94 127 122 107
104 100 99 100 89 81 71 68 63 60 59 59 58 57 59 61 62 65 65 66 67 68
73 75 72 69 68 65 67 69 72 80 97 143 141 121 127 132 127 126 120 115
108 107 97 89 85 82 73 102 117 114 107 93 75 63 58 55 53 54 52 52 113
112 109 105 97 91 89 88 87 95 123 107 116 120 118 118 115 126 140 139
122 113 118 110 98 106 130 134 125 119 121 115 95 86 76 72 70 69 67
61 67 62 62 63 63 64 67 70 77 76 84 95 86 82 75 71 76 97 124 130 147
138 112 114 125 133 139 134 125 126 111 99 96 92 84 79 72 109 124 120
116 112 102 84 67 58 55 55 56 55 117 115 109 102 96 93 90 88 87 89
116 113 113 117 113 112 112 131 144 143 135 135 130 110 112 97 98 125
140 150 166 169 148 134 106 103 111 121 124 102 107 119 101 91 85 89
108 120 137 137 136 145 136 129 132 124 145 167 166 165 137 109 114
112 115 112 113 130 125 113 109 88 80 75 80 81 76 113 117 112 110 110
106 102 89 67 57 56 57 57 119 116 110 102 97 95 93 90 90 92 113 121
111 114 109 108 115 139 149 148 149 146 125 127 123 115 99 89 127 132
144 164 174 179 167 164 165 171 173 169 168 171 168 166 157 163 172
176 177 179 176 177 177 176 179 174 168 160 163 145 111 119 130 132
134 134 123 110 133 133 114 86 69 70 78 84 87 118 113 109 105 103 100
97 95 84 62 57 58 58 120 116 111 105 101 97 94 91 90 88 109 129 111
113 104 101 115 143 157 154 153 124 132 141 142 135 113 95 95 134 127
129 145 161 170 172 169 173 177 178 177 177 175 176 173 177 180 181
180 182 175 175 173 172 169 157 146 154 149 115 116 139 144 141 135
141 149 139 103 127 129 99 79 84 90 88 94 120 107 105 104 100 95 90
88 88 75 59 57 58 121 115 110 108 105 99 95 93 88 87 97 129 113 108
99 96 112 146 161 152 127 134 148 157 152 138 123 114 113 119 145 124
110 131 147 158 163 165 173 177 177 175 171 169 165 173 176 177 175
172 167 165 162 154 145 129 138 159 131 126 132 131 144 147 146 140
142 147 145 127 132 115 87 90 85 84 102 119 109 105 103 97 91 86 83
83 81 65 57 57 118 116 112 111 106 99 97 92 88 84 84 120 125 103 96
93 113 157 157 136 131 140 160 153 147 145 135 132 121 122 147 153
108 117 132 150 167 161 165 175 175 172 168 163 166 166 170 172 169
158 157 161 153 137 132 137 164 153 130 139 140 142 145 151 153 151
144 140 136 140 142 137 109 96 87 86 119 117 107 105 105 101 92 86 81
78 79 74 58 58 120 118 115 112 107 100 97 93 88 85 85 106 137 113 92
91 126 162 140 137 148 166 157 155 154 147 142 125 115 123 148 161
145 128 139 161 162 155 154 161 171 167 163 165 165 159 161 160 158
149 149 156 155 139 137 153 162 145 133 116 128 140 144 142 142 137
131 137 136 134 139 144 145 136 130 125 136 123 109 103 100 96 94 88
78 76 76 76 61 59 119 119 115 113 107 101 99 95 90 85 84 97 139 132
98 96 151 152 150 163 165 151 156 156 150 148 144 138 132 138 148 156
153 145 158 159 146 147 148 152 159 155 146 155 150 150 151 149 141
147 150 151 158 146 142 151 147 145 136 142 143 138 140 148 152 148
137 119 108 113 117 106 107 98 102 116 126 112 105 100 97 92 88 85 83
77 74 74 64 57 118 119 115 111 108 103 99 95 90 84 81 93 140 139 111
125 153 162 166 149 139 145 155 151 148 145 144 144 146 147 153 148
149 148 153 147 140 145 136 140 145 143 144 149 145 143 142 145 133
143 150 145 148 142 141 143 139 137 126 126 124 120 122 132 136 141
147 153 143 135 130 126 106 92 102 113 124 111 102 98 92 88 84 81 81
78 73 71 67 58 119 118 115 111 107 102 100 93 89 83 78 93 143 143 134
151 171 157 135 124 144 161 151 140 139 137 140 144 147 147 151 149
148 147 140 148 138 130 112 130 127 137 150 139 144 132 135 136 138
127 137 145 134 141 147 141 141 136 134 128 126 119 119 117 122 123
123 137 143 143 142 141 143 141 133 126 133 114 104 98 90 87 82 80 78
78 75 70 68 57 118 116 116 112 106 101 98 92 88 83 79 95 143 154 160
170 145 119 128 156 156 146 141 144 143 144 140 145 151 153 154 155
150 143 129 146 132 108 91 128 116 129 132 132 116 123 117 127 130
116 121 137 135 131 136 139 141 139 139 141 133 135 139 142 133 113
103 113 113 126 130 133 139 144 145 146 147 124 115 110 97 86 81 79
78 75 74 68 65 55 115 113 112 108 105 100 96 90 87 86 83 108 156 163
161 154 150 153 159 151 143 142 146 148 146 151 152 151 155 154 155
157 150 141 140 135 128 102 97 128 140 124 135 117 102 124 123 124
100 105 112 124 136 130 131 130 141 142 141 135 139 149 148 148 135
118 114 120 117 108 113 138 145 138 131 148 160 137 123 110 94 83 79
78 77 73 70 65 63 55 112 111 109 108 105 99 95 90 86 85 98 138 164
152 152 170 172 163 153 147 137 139 138 137 145 148 154 153 157 159
160 155 151 147 144 139 133 111 95 128 141 111 137 107 111 106 139
130 83 92 112 126 137 131 133 130 132 134 143 142 149 149 149 138 134
134 141 127 101 93 104 117 121 138 132 137 155 135 113 102 92 82 77
75 72 69 66 66 60 55 108 108 107 106 103 98 92 87 88 87 94 134 159
160 170 172 156 136 123 116 125 130 143 144 147 146 152 157 155 159
164 162 155 149 148 147 139 122 108 126 149 120 126 117 108 104 138
126 92 102 124 133 139 131 137 135 131 142 142 144 142 146 146 138
136 133 132 104 85 85 80 93 112 119 134 143 158 145 109 91 85 80 76
72 71 69 66 65 60 54 105 105 104 101 99 95 89 85 82 80 82 126 161 170
172 149 125 100 92 121 131 123 130 143 153 148 152 159 155 160 162
164 157 143 143 144 150 126 97 107 150 132 100 117 95 116 144 109 81
98 129 128 137 133 145 141 143 150 148 146 136 139 138 132 127 123
121 92 78 74 76 69 86 121 139 139 153 158 126 98 86 80 74 70 70 69 66
65 56 49 102 101 101 99 95 90 88 84 81 79 80 124 164 168 163 146 117
91 77 91 126 135 137 137 153 157 155 164 163 162 161 160 158 145 147
141 144 117 85 100 144 130 85 115 97 128 138 95 69 78 116 125 131 134
143 147 152 158 152 146 132 138 135 132 124 121 107 99 83 59 60 84 95
115 138 136 149 153 114 92 90 84 73 68 67 66 66 61 53 44 97 99 99 94
91 89 87 85 81 77 83 143 164 155 160 147 127 105 96 94 111 139 147
146 157 163 164 173 167 161 165 161 160 149 152 145 130 105 88 91 135
120 74 87 88 121 113 79 59 67 96 118 127 132 142 145 153 152 153 152
144 149 140 141 135 128 112 102 86 70 71 79 102 111 126 116 145 143
97 81 78 76 71 66 65 64 61 55 46 41 93 95 95 92 89 87 86 85 82 82 103
142 159 157 156 138 110 97 97 123 120 134 151 158 162 170 172 173 169
159 165 163 163 154 148 139 125 125 114 82 112 122 70 72 97 110 94 61
79 83 99 108 124 132 141 150 149 150 147 152 149 154 146 145 145 135
121 102 90 75 59 62 73 99 109 111 143 131 85 78 74 71 68 63 60 58 53
45 38 37 89 91 92 89 88 86 87 83 82 81 84 126 158 156 147 118 88 86
96 123 144 150 163 165 170 172 172 169 164 157 162 165 165 154 136
130 127 154 119 72 99 127 79 79 92 89 96 53 89 115 104 95 112 132 149
153 147 147 143 146 149 153 150 150 149 142 135 112 103 71 48 49 63
77 98 112 142 117 77 74 72 69 66 61 54 48 41 37 35 35 84 86 86 86 86
85 87 83 81 81 87 123 157 154 140 99 77 88 125 143 153 159 168 170
174 175 171 166 155 153 157 167 167 153 125 118 146 165 104 70 106
115 88 81 69 101 74 53 111 135 131 111 104 128 151 155 153 142 139
148 149 153 153 156 153 148 134 136 121 94 62 43 54 65 87 121 149 130
76 68 65 64 59 53 46 41 36 33 32 31 80 83 83 84 84 84 84 83 83 84 89
127 158 150 124 89 82 117 149 161 166 164 170 175 178 178 174 167 157
157 160 166 168 148 110 108 165 163 107 71 98 100 66 68 68 94 60 62
117 151 153 116 86 125 149 164 153 135 139 140 141 151 159 160 158
155 150 149 140 127 94 76 68 64 73 112 150 134 71 57 55 53 48 44 39
36 33 32 32 31 75 80 81 82 81 81 81 83 80 83 94 141 164 153 134 125
134 157 161 165 171 171 175 177 178 179 175 170 163 159 165 170 172
143 98 119 169 162 125 68 86 95 66 58 68 88 62 72 124 153 158 128 76
113 155 164 152 131 142 143 151 163 163 161 160 159 156 153 157 148
138 129 119 114 111 121 150 130 66 48 43 43 43 40 36 33 31 30 29 30
72 74 77 77 78 79 80 79 77 82 109 162 172 167 163 162 165 164 164 169
172 170 177 179 182 180 176 166 163 156 162 171 170 135 86 134 167
161 122 73 82 102 74 80 75 78 63 76 110 156 161 136 78 101 152 162
147 137 143 147 155 162 165 164 157 151 153 152 160 156 147 147 147
144 143 148 156 147 82 46 41 42 38 37 33 31 29 29 27 28 67 71 73 76
78 79 78 77 80 103 149 180 181 177 177 169 164 168 174 174 169 172
176 180 182 181 177 169 163 163 163 169 167 126 81 136 166 157 108 71
90 104 96 83 102 89 78 66 104 147 159 137 82 88 145 159 148 139 135
140 147 158 163 165 160 158 154 146 157 160 153 150 152 155 155 156
162 166 131 61 40 39 37 35 31 30 27 26 27 27 65 68 71 75 77 78 77 79
93 147 179 183 181 178 174 166 164 172 172 167 163 170 174 177 178
174 171 169 164 159 161 162 158 118 85 141 161 149 102 69 109 108 101
85 109 115 106 78 98 140 149 139 96 77 133 147 140 144 147 154 158
159 160 163 161 154 146 144 154 162 161 152 152 159 163 162 160 165
163 115 51 40 36 33 29 28 27 28 25 25 66 69 70 72 74 76 75 79 112 169
181 181 180 169 159 157 165 169 169 167 167 166 166 169 167 146 131
115 124 147 155 156 137 105 78 129 144 130 108 77 120 107 101 79 110
114 105 89 101 132 137 117 66 73 121 131 134 128 121 128 119 110 133
146 149 147 141 137 149 154 155 152 150 155 160 165 163 161 167 148
69 38 35 31 30 29 27 24 22 23 69 69 69 71 73 73 85 110 158 181 182
183 182 171 166 166 166 169 169 164 155 154 152 137 93 56 59 92 81 51
63 95 128 106 81 105 114 119 94 84 128 114 105 91 106 111 100 68 94
112 110 96 78 78 107 97 65 37 42 57 59 50 54 93 123 133 135 137 139
148 150 146 145 147 153 160 166 164 163 165 131 65 37 33 29 27 26 24
23 21 68 69 70 71 70 76 108 151 177 183 185 186 179 173 168 167 165
162 152 136 122 111 105 96 54 54 124 114 67 56 27 26 39 93 93 89 74
93 86 99 115 113 110 97 114 110 91 80 76 92 87 86 107 100 62 33 30 49
93 87 82 54 33 53 88 100 108 99 106 129 143 148 148 140 147 157 164
165 164 168 159 105 44 32 29 26 25 25 22 22 67 68 69 70 70 81 134 172
182 185 185 180 172 163 162 163 160 147 135 126 120 116 127 141 80 99
134 84 66 24 18 24 24 30 77 92 65 72 86 91 94 115 125 116 119 109 116
87 80 88 98 103 106 49 37 38 36 17 51 118 126 81 43 75 125 99 85 76
84 104 117 132 139 137 131 145 162 169 167 169 168 149 78 33 29 27 25
24 23 23 66 67 69 69 75 115 167 183 184 184 182 176 168 162 161 161
156 147 146 154 163 165 170 166 108 73 102 110 98 27 19 34 33 28 29
77 92 92 103 87 93 119 126 126 124 116 115 95 99 114 117 113 65 32 67
69 54 20 26 90 102 77 57 106 153 142 125 105 91 94 105 117 127 134
115 118 145 161 170 172 171 159 97 37 29 27 26 24 23 23 65 66 67 74
114 164 183 184 186 183 177 168 165 160 162 157 153 152 155 166 174
175 178 180 147 70 111 120 117 50 34 66 67 44 24 47 122 127 127 109
114 131 125 128 123 121 114 102 111 133 135 109 23 47 97 105 79 26 42
102 112 82 71 141 166 157 149 145 127 113 110 111 115 128 125 110 130
148 159 160 166 161 104 38 29 28 26 26 24 24 65 67 67 91 145 178 185
184 183 176 166 156 154 156 162 151 148 155 159 168 171 175 175 180
176 106 102 142 136 96 85 109 117 80 34 31 137 155 151 131 127 139
125 127 125 122 119 99 118 145 147 88 19 45 96 120 102 61 82 126 108
65 109 162 165 151 142 135 131 123 114 107 118 120 131 124 116 122
125 134 153 166 150 76 33 29 28 27 25 24 65 65 71 106 157 178 183 183
181 175 167 160 153 155 158 139 145 156 156 156 160 165 176 178 180
171 105 116 149 143 138 147 133 96 31 25 134 165 161 139 143 143 132
128 130 130 120 108 132 148 145 74 25 27 79 124 127 108 125 126 89 98
156 166 160 151 145 140 133 121 109 104 106 120 131 136 110 99 108
121 139 156 165 134 55 32 28 27 27 26 65 67 77 113 164 178 181 178
177 170 162 151 145 164 154 133 141 152 153 149 139 137 141 151 171
178 170 124 112 146 146 141 112 45 32 72 137 160 159 150 150 149 142
140 139 130 124 120 134 143 128 88 65 29 33 88 117 123 130 85 105 157
165 153 138 129 127 115 109 115 108 87 96 112 126 135 135 135 142 151
156 159 164 149 90 44 30 29 27 27 66 65 76 113 161 177 175 167 161
159 152 138 140 165 149 133 134 148 156 153 141 132 131 132 136 158
171 175 165 135 120 99 87 111 135 146 130 132 152 163 161 159 155 138
138 141 127 122 120 123 96 97 112 119 99 73 75 91 112 145 158 156 136
112 103 104 104 102 113 117 105 90 98 116 115 128 134 146 154 160 163
160 165 158 109 48 31 29 29 27 66 64 77 115 163 176 171 158 149 131
106 110 155 163 142 122 118 146 160 158 154 146 129 119 113 116 133
150 163 171 175 175 173 178 159 151 97 97 152 165 158 160 151 132 137
146 133 121 117 80 65 84 121 151 165 159 154 158 155 148 136 123 104
89 92 102 105 110 119 122 104 86 90 106 106 120 136 142 147 151 159
162 165 165 137 66 30 29 30 29 65 65 69 113 160 172 168 153 134 115
111 152 163 143 117 101 111 140 163 163 161 157 153 136 127 123 129
125 132 144 158 172 181 177 158 131 80 92 150 150 151 154 144 125 130
131 126 112 111 71 45 59 109 147 166 167 159 146 133 120 121 109 105
101 104 102 112 123 126 122 108 87 83 98 109 123 134 139 148 151 155
161 163 161 143 91 43 32 32 31 70 73 86 116 146 167 170 163 158 162
167 167 156 137 117 109 115 137 162 164 166 161 155 145 136 135 137
129 124 122 126 137 156 166 152 116 77 107 138 135 137 147 142 135
132 124 105 97 90 76 53 58 99 140 153 143 131 130 121 117 116 116 122
116 117 116 117 123 120 125 108 90 87 90 97 105 126 137 146 146 151
154 163 160 132 75 39 35 33 34 91 101 114 134 160 175 175 173 171 162
160 153 148 142 132 124 131 147 168 168 164 160 151 153 148 138 138
137 135 122 124 137 151 158 141 117 90 114 120 120 125 130 139 136
129 121 91 76 74 67 69 57 88 128 143 126 117 114 122 119 121 122 121
122 119 125 122 126 131 126 115 112 108 108 100 97 117 131 139 147
149 149 156 164 145 71 42 39 37 36 121 132 137 151 170 176 172 165
160 153 152 148 138 126 107 107 123 150 165 165 165 167 162 160 152
146 146 139 135 136 149 153 157 149 135 119 102 101 92 110 122 123
130 131 118 115 95 69 49 50 76 69 77 103 129 127 121 121 114 121 129
131 124 126 127 129 129 125 131 138 126 104 102 102 105 99 99 113 129
138 150 158 152 161 151 97 59 47 43 40 146 153 157 162 167 170 168
155 148 143 138 122 106 93 86 118 146 157 163 155 158 163 153 146 141
135 135 135 135 143 149 158 161 156 145 127 113 92 92 111 128 124 124
124 115 113 94 75 50 47 73 93 88 105 124 134 135 135 120 117 123 111
102 109 128 133 134 118 116 125 127 124 103 91 94 89 73 81 102 127
135 147 163 160 154 123 76 58 50 46 163 167 169 171 172 175 170 159
149 142 137 125 116 103 125 149 158 157 157 146 123 134 139 135 124
117 122 128 131 136 146 152 150 153 142 128 106 84 100 121 121 129
119 115 116 109 102 81 62 54 71 99 109 120 122 125 130 123 113 102
104 99 100 102 104 113 105 92 101 112 123 116 109 110 105 108 95 73
83 108 134 144 157 163 161 145 107 73 58 51 172 175 176 176 178 178
170 157 143 135 134 132 137 153 167 165 156 150 152 136 105 90 117
122 116 118 123 132 142 146 127 135 142 147 150 144 99 78 102 135 134
129 118 111 115 117 116 94 64 53 75 102 116 120 118 105 102 116 104
105 108 106 101 100 100 82 73 86 102 109 121 125 104 93 104 110 119
105 88 93 121 141 155 163 165 155 128 91 69 56 177 176 175 177 179
179 169 156 147 138 137 135 135 143 153 153 153 153 148 130 103 71 72
77 92 99 104 121 137 129 122 129 140 146 151 134 103 83 119 146 139
125 109 91 105 115 114 110 74 61 84 101 127 129 114 94 86 95 106 93
84 78 73 67 57 57 64 83 97 104 114 126 114 96 97 95 109 121 119 111
119 137 153 160 164 161 144 111 81 63 176 176 176 175 180 178 173 168
159 150 147 128 126 145 149 149 146 145 136 114 92 64 56 55 58 90 104
114 124 124 130 120 126 136 139 139 122 102 113 140 125 120 116 99
102 113 112 109 75 58 83 107 120 124 109 86 84 94 95 98 85 78 66 53
50 52 60 75 90 100 107 118 116 112 117 107 102 106 114 119 130 139
153 158 163 163 151 126 92 71 174 175 173 173 176 178 179 173 165 156
144 137 143 140 139 149 149 144 137 123 104 99 98 91 93 104 117 140
147 145 134 127 140 115 129 135 135 119 86 87 101 120 122 119 115 111
89 73 51 83 104 112 108 104 87 86 77 85 97 106 94 82 76 67 66 64 66
71 91 96 97 112 124 115 114 117 118 117 110 110 127 145 153 159 163
162 154 135 108 85 170 171 170 171 175 178 178 172 166 157 153 151
143 138 137 133 136 125 105 81 68 64 44 48 67 82 90 112 142 161 168
172 165 146 137 125 142 137 111 57 29 52 103 96 100 53 31 40 67 105
118 111 86 114 107 111 101 95 111 118 113 96 84 86 74 58 57 65 74 98
104 106 112 122 113 113 113 116 123 123 124 144 151 156 162 161 158
146 119 94 168 167 167 169 171 176 177 172 170 169 166 158 145 121
101 95 82 67 77 88 89 86 80 70 53 44 44 62 108 148 146 129 136 151
165 161 150 137 133 119 87 49 89 59 82 49 65 93 106 108 119 131 140
147 149 149 146 146 129 123 112 102 77 57 61 76 75 81 80 69 74 98 103
105 111 107 107 113 124 133 135 130 146 155 159 161 157 148 126 101
162 164 165 167 173 177 176 175 172 166 161 145 127 115 113 108 110
104 74 48 35 30 26 23 30 36 52 85 119 165 165 148 130 106 108 116 106
119 131 139 141 90 58 33 49 66 111 113 92 92 93 100 90 92 86 104 107
122 131 120 97 68 54 56 64 67 61 69 74 103 98 102 97 90 98 110 116
124 129 135 144 141 145 155 161 162 158 150 132 112 161 164 167 169
173 177 178 173 169 162 156 146 145 154 146 137 121 104 95 66 46 42
61 69 71 93 103 81 92 128 165 169 157 147 125 127 126 129 136 122 131
130 66 26 37 97 119 107 110 90 82 95 102 118 127 138 144 139 119 93
88 103 111 102 89 72 55 55 71 93 102 99 119 122 109 117 119 119 128
139 151 154 155 158 162 164 161 154 142 123 162 165 167 167 170 176
176 172 168 169 167 163 161 147 148 138 120 112 100 100 89 103 103 95
89 57 33 48 68 107 151 145 128 130 135 131 131 138 118 103 92 98 83
39 57 85 85 87 96 114 107 106 109 116 124 110 109 117 117 100 73 64
52 67 91 106 107 121 116 111 116 118 128 131 134 128 128 123 122 133
143 150 157 160 164 165 162 157 145 127 163 164 166 167 169 173 173
172 175 178 169 167 157 152 138 124 133 137 118 97 119 137 106 72 64
73 99 109 123 121 132 146 144 121 108 81 94 97 76 68 64 67 59 45 45
57 63 66 64 83 84 83 93 98 119 121 123 114 105 102 102 93 97 95 84 89
92 99 124 131 139 136 125 132 142 134 132 130 128 134 142 144 153 160
164 164 163 158 146 130 164 166 167 166 166 167 173 176 176 175 173
169 157 135 127 140 145 138 132 141 146 126 118 118 128 126 104 106
100 82 86 112 141 123 93 85 99 83 69 64 58 54 41 33 28 42 58 74 76 79
86 88 98 108 108 113 109 105 97 95 103 90 88 91 104 101 110 107 97
108 114 140 136 120 121 131 135 144 142 141 139 145 152 159 164 163
161 158 149 136 165 166 165 165 165 169 175 175 173 176 173 168 154
117 114 148 159 155 153 157 155 148 149 133 100 94 96 82 55 47 77 112
127 125 103 89 90 68 61 47 36 36 33 30 28 32 38 50 62 66 71 69 73 95
90 102 96 99 91 73 66 84 101 78 83 94 104 123 128 122 108 109 119 126
122 122 125 136 141 143 145 147 152 157 163 163 157 155 149 138 166
165 165 165 167 170 174 177 177 176 172 155 123 113 151 171 162 161
167 174 163 140 114 96 97 75 75 70 82 84 73 97 109 115 121 121 107 87
59 49 38 48 42 38 36 38 38 43 53 59 71 76 80 91 93 83 83 88 76 85 82
57 71 78 99 113 100 113 120 131 140 135 129 111 111 134 127 124 131
134 145 149 151 158 165 162 153 150 149 138 165 166 167 169 164 167
174 178 178 176 161 142 152 152 166 173 166 173 172 159 140 108 113
84 74 107 111 113 83 58 79 71 98 85 118 123 124 117 93 77 66 66 56 55
54 66 64 72 77 84 91 88 86 96 83 77 68 62 69 67 57 82 86 78 89 113
132 133 130 121 138 143 152 144 122 127 141 134 126 125 142 150 155
160 162 161 155 153 150 141 167 167 167 163 160 164 173 179 179 171
165 163 158 160 173 176 169 161 154 143 128 117 102 108 130 145 141
108 80 73 70 73 68 85 100 102 114 133 123 104 95 98 77 69 87 86 89 89
101 97 99 92 79 79 69 54 70 48 43 47 60 51 96 112 115 121 129 135 144
139 135 134 139 148 146 146 144 143 139 142 142 151 159 161 164 161
153 150 150 147 168 168 163 160 157 163 176 177 179 175 172 164 161
164 169 166 154 146 137 134 119 131 132 143 153 154 144 122 96 89 69
52 58 70 64 61 95 127 130 111 112 112 93 74 98 97 99 92 96 100 93 75
70 56 55 46 54 70 48 43 46 66 98 110 128 131 132 136 135 139 140 131
125 132 132 145 154 151 141 139 145 147 156 161 164 163 156 151 149
148 169 164 161 158 160 166 176 178 180 175 173 169 167 162 153 134
135 134 130 135 141 155 148 152 158 148 136 122 117 94 59 46 53 42 43
43 56 103 92 102 115 106 90 75 87 91 94 90 90 85 82 64 54 56 40 39 49
82 90 69 51 51 105 111 119 133 134 129 122 128 127 120 121 111 110
120 138 151 154 148 144 148 155 160 164 163 155 149 149 149 166 164
161 159 158 167 178 179 176 177 174 172 164 148 133 126 133 132 137
154 148 152 147 144 148 134 110 114 122 91 57 53 56 42 46 42 47 64 59
72 86 91 84 79 76 85 80 72 72 78 72 53 51 54 39 35 53 93 100 97 68 50
94 105 109 104 116 118 107 110 120 119 113 108 100 104 122 136 149
156 147 145 155 161 165 164 157 149 147 148 166 164 158 153 158 173
180 179 178 177 175 170 160 144 141 147 151 149 154 154 143 142 128
125 139 107 91 114 111 86 70 70 59 57 54 51 50 31 36 46 54 63 59 70
61 65 64 61 53 62 60 45 36 44 41 40 62 104 107 106 88 74 96 92 101 77
84 111 97 94 116 127 128 109 95 111 115 129 138 141 151 152 152 160
166 164 160 152 147 147 167 161 155 152 165 177 180 178 178 176 171
167 159 155 158 159 161 159 157 140 149 150 129 120 133 101 96 105 88
77 76 61 62 70 63 64 49 29 33 36 35 41 43 48 44 53 60 55 50 49 54 48
41 46 41 51 69 93 101 104 96 93 107 98 95 92 96 102 111 97 115 131
134 117 95 102 121 130 135 133 131 144 150 157 165 164 157 154 149
146 167 163 159 163 168 178 182 178 177 174 171 170 165 161 161 159
160 164 156 153 165 161 140 125 127 102 92 84 53 54 52 42 52 64 64 77
60 39 42 36 32 30 34 30 30 34 39 42 40 40 46 57 55 56 47 44 56 75 83
96 85 95 116 105 92 114 115 100 121 126 121 124 138 127 104 115 118
127 135 137 135 132 146 152 161 166 160 152 152 150 169 164 164 165
171 180 182 178 175 176 172 167 165 163 161 155 158 160 155 160 155
161 141 124 111 96 81 59 43 47 33 33 40 50 66 55 50 40 46 40 31 31 31
27 31 26 30 32 38 41 42 50 55 56 45 39 50 67 71 84 88 93 121 112 86
119 119 108 121 131 132 122 135 136 104 123 130 126 132 138 142 141
142 153 160 163 164 157 151 152 168 166 164 164 170 180 182 175 174
175 174 172 172 163 159 158 158 153 146 153 154 155 140 128 99 102 77
51 47 42 37 42 40 49 54 38 33 39 48 38 35 47 39 39 50 31 32 46 53 52
43 53 56 62 63 52 59 55 64 85 96 104 124 119 97 118 116 113 122 131
125 128 134 142 117 118 133 126 128 137 147 147 146 152 159 164 163
158 156 151 169 166 161 162 173 180 180 180 179 178 175 174 173 163
165 165 163 153 150 145 147 153 141 122 94 99 75 56 69 49 57 76 57 45
44 56 56 63 68 53 54 80 61 64 64 43 37 46 70 73 58 56 55 70 79 81 67
48 65 101 106 111 127 123 120 130 130 112 133 134 121 127 136 138 135
124 135 132 129 134 141 148 147 153 159 165 161 157 152 150 169 163
157 163 175 181 183 181 179 176 176 172 169 169 169 168 164 160 158
145 139 145 136 113 103 80 61 85 107 90 77 85 58 46 67 98 93 91 84 72
76 109 92 90 72 59 54 49 74 98 82 74 71 69 80 95 89 69 62 103 115 109
121 119 128 130 139 123 127 138 129 122 136 141 136 136 137 139 141
143 137 143 149 154 159 161 160 155 151 149 167 159 157 161 171 179
182 181 176 172 174 174 174 172 168 165 165 164 162 153 142 144 146
139 130 101 107 119 121 91 65 87 99 82 109 122 123 105 89 79 79 124
112 102 87 88 91 54 66 106 109 79 96 88 101 108 114 91 71 105 110 98
113 123 128 121 134 132 106 125 136 128 131 135 139 136 138 136 135
144 145 143 150 155 160 163 160 156 151 148 162 157 157 158 170 180
181 178 173 170 171 172 169 164 163 165 164 168 161 156 152 155 163
156 137 139 134 101 96 64 102 133 125 119 127 134 121 86 92 69 93 131
125 120 88 106 105 72 52 108 113 83 78 94 111 125 121 97 90 110 121
80 97 126 127 119 123 118 88 99 129 133 117 123 135 137 125 133 131
134 146 147 151 154 159 165 163 158 153 148 159 155 153 155 171 181
182 181 179 177 176 175 169 163 168 164 164 169 158 155 156 159 164
160 153 150 131 118 121 95 146 147 134 144 142 147 102 114 101 94 102
113 134 130 86 109 123 98 61 96 107 103 74 55 77 129 121 109 116 108
121 78 72 109 113 120 128 107 70 96 119 131 117 117 125 133 125 122
132 129 134 141 145 149 157 160 162 158 156 148 159 155 149 156 172
179 179 178 178 180 180 178 172 172 167 159 164 163 154 157 160 161
160 156 155 149 141 132 117 106 153 130 140 144 154 148 130 129 101
136 129 117 126 119 75 120 141 103 82 86 118 128 101 66 47 110 108
124 117 113 113 101 77 93 75 109 126 111 68 95 126 132 129 131 133
133 132 135 138 141 136 140 133 141 150 158 159 156 155 153 159 152
150 157 169 176 176 178 180 180 182 180 174 169 167 166 165 161 157
157 155 156 157 148 145 149 146 112 117 137 150 143 129 119 131 150
115 148 125 142 139 143 112 115 86 125 149 110 121 89 126 145 133 101
60 95 92 121 71 106 123 117 115 102 75 102 121 120 91 88 122 136 131
140 144 142 141 143 144 147 150 148 145 140 149 153 155 154 152 149
158 150 150 159 169 176 175 176 178 178 178 177 170 166 169 168 163
160 160 155 151 162 157 154 141 138 132 103 121 142 142 139 126 101
124 122 93 154 143 128 121 122 115 139 110 127 140 131 137 94 136 144
138 107 91 106 80 83 55 95 121 118 109 113 102 121 131 135 137 113
104 131 137 136 137 139 139 143 143 146 153 157 153 147 151 152 152
154 153 149 153 150 155 164 171 177 175 177 178 178 177 174 173 172
172 168 162 161 163 152 143 152 154 153 138 130 125 113 125 112 125
137 112 113 141 138 107 128 119 90 111 92 129 138 116 118 126 132 125
94 132 102 116 103 120 112 88 64 73 77 108 108 71 112 127 138 142 144
150 143 122 121 140 144 137 137 141 144 148 148 153 157 157 152 153
151 151 154 154 151 149 153 159 167 173 175 176 175 175 175 177 178
176 171 172 170 162 162 160 143 149 155 156 146 140 136 138 129 136
128 120 118 118 107 128 139 115 121 112 90 106 96 112 109 123 79 114
122 103 92 122 94 110 104 117 117 90 95 113 90 94 107 61 85 134 143
142 150 148 152 142 111 120 140 145 147 151 151 153 153 148 147 155
155 154 149 148 153 155 154 148 158 164 170 174 175 173 173 173 174
177 178 171 168 178 174 167 158 138 146 159 167 157 151 154 158 160
134 142 138 122 130 128 114 112 117 106 102 135 102 114 122 99 90 117
95 110 107 100 69 107 105 110 86 85 104 99 120 142 82 68 146 125 73
75 109 132 148 146 140 136 138 113 120 135 146 154 153 151 152 151
146 149 156 152 145 145 152 156 155 151 160 165 171 173 174 174 173
171 171 175 171 167 178 180 177 171 160 148 161 156 159 149 140 133
151 158 136 124 137 147 161 131 107 119 117 111 107 105 97 118 125 87
108 126 138 131 99 95 60 92 115 103 67 77 116 123 133 150 105 42 140
151 119 67 46 73 103 130 142 130 130 132 127 122 133 145 148 151 149
148 148 150 152 149 141 143 151 155 157
